<svg width="37" height="31" viewBox="0 0 37 31" fill="none" xmlns="http://www.w3.org/2000/svg">
<path d="M17.05 9.2998H15.779C14.0585 9.2998 12.4 11.1598 12.4 12.6478V15.4998L7.75005 20.1498V15.4998H4.65005C2.94505 15.4998 1.55005 14.1048 1.55005 12.3998V4.6498C1.55005 2.9448 2.94505 1.5498 4.65005 1.5498H13.95C15.655 1.5498 17.05 2.9448 17.05 4.6498V9.2998Z" fill="#2C5AFF"/>
<path d="M26.35 10.8496H17.05C15.345 10.8496 13.95 12.2446 13.95 13.9496V21.6996C13.95 23.4046 15.345 24.7996 17.05 24.7996H18.6L23.25 29.4496V24.7996H26.35C28.055 24.7996 29.45 23.4046 29.45 21.6996V13.9496C29.45 12.2446 28.055 10.8496 26.35 10.8496Z" fill="#1D1D1B"/>
</svg>
