<svg width="37" height="31" viewBox="0 0 37 31" fill="none" xmlns="http://www.w3.org/2000/svg">
<path d="M17.1705 9.16948H15.8522C14.0678 9.16948 12.3476 11.1122 12.3476 12.6664V15.6453L7.5248 20.5022V15.6453H4.30958C2.54121 15.6453 1.09436 14.1882 1.09436 12.4074V4.31262C1.09436 2.53177 2.54121 1.07471 4.30958 1.07471H13.9552C15.7236 1.07471 17.1705 2.53177 17.1705 4.31262V9.16948Z" fill="#2C5AFF"/>
<path d="M26.816 10.7881H17.1704C15.402 10.7881 13.9551 12.2451 13.9551 14.026V22.1208C13.9551 23.9016 15.402 25.3587 17.1704 25.3587H18.778L23.6008 30.2155V25.3587H26.816C28.5844 25.3587 30.0312 23.9016 30.0312 22.1208V14.026C30.0312 12.2451 28.5844 10.7881 26.816 10.7881Z" fill="#31313C"/>
</svg>
